<svg width="140" height="145" viewBox="0 0 140 145" fill="none" xmlns="http://www.w3.org/2000/svg">
    <ellipse cx="100.476" cy="36.4716" rx="9.08191" ry="9.08191" fill="#F37046" />
    <path
        d="M22.6289 111.575L33.6085 103.217L54.4304 130.568C56.7386 133.599 56.1519 137.928 53.1199 140.237C50.088 142.545 45.759 141.958 43.4508 138.926L22.6289 111.575Z"
        fill="#F78C1E" />
    <rect x="114.535" y="28.3848" width="4.11698" height="31.2149" rx="2.05849"
        transform="rotate(-125.334 114.535 28.3848)" fill="#F78C1E" />
    <rect x="111.039" y="18.5742" width="4.11698" height="18.1747" rx="2.05849"
        transform="rotate(-171.881 111.039 18.5742)" fill="#F78C1E" />
    <rect x="118.785" y="36.605" width="4.11698" height="17.7072" rx="2.05849"
        transform="rotate(-77.9012 118.785 36.605)" fill="#F78C1E" />
    <path
        d="M122.455 72.2229L75.0278 5.47803C61.0446 33.877 41.0065 54.6357 38.7 57.5188C36.3935 60.402 16.9324 78.9982 8.28294 84.3321C-0.366496 89.6659 -3.10548 99.0361 4.24654 108.695C10.1282 116.421 20.9207 113.452 25.5818 111.001C27.9364 108.887 37.9217 101.862 59.0263 90.675C80.1309 79.4884 110.106 73.7125 122.455 72.2229Z"
        fill="#FAA629" />
    <path
        d="M36.9047 102.928L17.5876 77.8447C15.281 79.5746 9.91819 83.4669 6.91972 85.1967C3.92125 86.9266 2.11465 89.8578 1.58615 91.1072C-1.58531 98.0267 0.288739 104.081 5.76672 110.136C11.2447 116.191 23.6422 112.442 25.8046 110.857C27.5345 109.588 33.9254 105.042 36.9047 102.928Z"
        fill="#F37046" />
</svg>
    