<svg width="91" height="100" viewBox="0 0 91 100" fill="none" xmlns="http://www.w3.org/2000/svg">
    <g clip-path="url(#clip0_10_162)">
    <path d="M11.0523 41.7691C13.2596 41.4677 14.7647 39.1433 14.414 36.5773C14.0633 34.0115 11.9895 32.1758 9.78216 32.4772C7.57483 32.7786 6.06976 35.1032 6.42048 37.669C6.77121 40.235 8.84492 42.0706 11.0523 41.7691Z" fill="white"/>
    <path d="M11.9189 41.3332C14.1263 41.0317 15.6313 38.7073 15.2806 36.1413C14.9298 33.5755 12.8561 31.7398 10.6488 32.0412C8.44146 32.3427 6.93639 34.6671 7.28712 37.233C7.63785 39.7989 9.71156 41.6346 11.9189 41.3332Z" fill="white"/>
    <path d="M33.2848 41.161C33.9138 39.1512 33.0208 37.0832 31.2902 36.5421C29.5597 36.0011 27.647 37.1917 27.018 39.2015C26.389 41.2114 27.282 43.2793 29.0125 43.8204C30.743 44.3615 32.6558 43.1709 33.2848 41.161Z" fill="white"/>
    <path d="M32.6494 40.6932C33.2784 38.6834 32.3853 36.6154 30.6548 36.0744C28.9243 35.5333 27.0116 36.724 26.3826 38.7339C25.7536 40.7437 26.6466 42.8117 28.3771 43.3528C30.1076 43.8938 32.0204 42.7031 32.6494 40.6932Z" fill="white"/>
    <path d="M62.0599 42.8478C63.2469 42.4766 63.8593 41.0573 63.4276 39.6776C62.9958 38.298 61.6834 37.4805 60.4962 37.8517C59.3091 38.2228 58.6968 39.6422 59.1285 41.0218C59.5603 42.4015 60.8726 43.219 62.0599 42.8478Z" fill="white"/>
    <path d="M62.4931 42.5246C63.6802 42.1533 64.2926 40.7341 63.8608 39.3544C63.4291 37.9748 62.1167 37.1572 60.9296 37.5285C59.7425 37.8996 59.13 39.319 59.5618 40.6985C59.9935 42.0782 61.306 42.8957 62.4931 42.5246Z" fill="white"/>
    <path d="M82.2232 43.9616C83.2279 42.0208 82.6884 39.7472 81.0181 38.8832C79.3479 38.0193 77.1793 38.8923 76.1746 40.833C75.1698 42.7737 75.7094 45.0474 77.3797 45.9114C79.05 46.7752 81.2185 45.9023 82.2232 43.9616Z" fill="white"/>
    <path d="M81.662 43.3683C82.6668 41.4276 82.1272 39.1539 80.4569 38.2899C78.7866 37.4261 76.6181 38.2989 75.6134 40.2397C74.6087 42.1805 75.1481 44.4541 76.8184 45.3181C78.4887 46.182 80.6573 45.309 81.662 43.3683Z" fill="white"/>
    <path d="M23.3363 42.3961L18.8642 35.0249" stroke="white" stroke-linecap="round" stroke-linejoin="round"/>
    <path d="M62.5972 44.8666L69.0197 40.3462" stroke="white" stroke-linecap="round" stroke-linejoin="round"/>
    <path d="M81.1034 49.5772L83.8837 45.4697" stroke="white" stroke-linecap="round" stroke-linejoin="round"/>
    <path d="M11.5256 44.8306L12.8942 47.2542" stroke="white" stroke-linecap="round" stroke-linejoin="round"/>
    <path d="M11.0227 46.7259L13.4473 45.3579" stroke="white" stroke-linecap="round" stroke-linejoin="round"/>
    <path d="M25.549 30.0093L25.5418 33.7541" stroke="white" stroke-linecap="round" stroke-linejoin="round"/>
    <path d="M23.7026 31.894L27.4455 31.9012" stroke="white" stroke-linecap="round" stroke-linejoin="round"/>
    <path d="M66.6059 30.0127L66.5952 34.4756" stroke="white" stroke-linecap="round" stroke-linejoin="round"/>
    <path d="M64.404 32.2603L68.8654 32.2675" stroke="white" stroke-linecap="round" stroke-linejoin="round"/>
    <path d="M71.4948 38.9028L75.8913 36.1561L74.4438 35.4775L71.4948 38.9028Z" fill="white" stroke="white" stroke-width="0.25" stroke-linecap="round" stroke-linejoin="round"/>
    <path d="M75.4065 34.3572C75.4603 34.4469 75.8913 36.156 75.8913 36.156L74.4438 35.4738L75.4065 34.3535V34.3572Z" fill="white" stroke="white" stroke-width="0.25" stroke-linecap="round" stroke-linejoin="round"/>
    <path d="M73.8439 33.6895L75.4065 34.3573L74.4438 35.4775L73.8439 33.6895Z" fill="white" stroke="white" stroke-width="0.25" stroke-linecap="round" stroke-linejoin="round"/>
    <path d="M72.0228 32.9102L73.8439 33.6893L71.9401 34.4073L72.0228 32.9102Z" fill="white" stroke="white" stroke-width="0.25" stroke-linecap="round" stroke-linejoin="round"/>
    <path d="M70.4099 33.7538L72.0226 32.9102L71.94 34.4073L70.4099 33.7538Z" fill="white" stroke="white" stroke-width="0.25" stroke-linecap="round" stroke-linejoin="round"/>
    <path d="M71.4948 38.9025L71.9402 34.4072L74.4438 35.4772L71.4948 38.9025Z" fill="white" stroke="white" stroke-width="0.25" stroke-linecap="round" stroke-linejoin="round"/>
    <path d="M70.4099 33.7539L71.4947 38.9026L71.94 34.4073L70.4099 33.7539Z" fill="white" stroke="white" stroke-width="0.25" stroke-linecap="round" stroke-linejoin="round"/>
    <path d="M71.9401 34.4075L73.8439 33.6895L74.4438 35.4775L71.9401 34.4075Z" fill="white" stroke="white" stroke-width="0.25" stroke-linecap="round" stroke-linejoin="round"/>
    <path d="M19.9202 32.2281L20.5201 28.6807L19.5 29.1187L19.9202 32.2281Z" fill="white" stroke="white" stroke-width="0.25" stroke-linecap="round" stroke-linejoin="round"/>
    <path d="M19.3635 28.1025C19.4354 28.1169 20.5201 28.6806 20.5201 28.6806L19.5 29.1186L19.3635 28.1025Z" fill="white" stroke="white" stroke-width="0.25" stroke-linecap="round" stroke-linejoin="round"/>
    <path d="M18.2966 28.6051L19.3635 28.1025L19.5 29.1186L18.2966 28.6051Z" fill="white" stroke="white" stroke-width="0.25" stroke-linecap="round" stroke-linejoin="round"/>
    <path d="M17.0538 29.1907L18.2966 28.6055L17.7902 29.9232L17.0538 29.1907Z" fill="white" stroke="white" stroke-width="0.25" stroke-linecap="round" stroke-linejoin="round"/>
    <path d="M16.7448 30.4148L17.0537 29.1904L17.7901 29.9229L16.7448 30.4148Z" fill="white" stroke="white" stroke-width="0.25" stroke-linecap="round" stroke-linejoin="round"/>
    <path d="M19.9202 32.2279L17.7902 29.9229L19.4999 29.1187L19.9202 32.2279Z" fill="white" stroke="white" stroke-width="0.25" stroke-linecap="round" stroke-linejoin="round"/>
    <path d="M16.7448 30.4148L19.9202 32.228L17.7901 29.9229L16.7448 30.4148Z" fill="white" stroke="white" stroke-width="0.25" stroke-linecap="round" stroke-linejoin="round"/>
    <path d="M17.7902 29.9232L18.2966 28.6055L19.4999 29.1188L17.7902 29.9232Z" fill="white" stroke="white" stroke-width="0.25" stroke-linecap="round" stroke-linejoin="round"/>
    <path d="M63.0677 29.7719C59.8385 37.6852 53.2543 32.0087 53.2543 32.0087C53.2543 32.0087 50.2011 28.6948 46.5444 27.772C42.884 26.8492 43.5343 27.5746 43.5343 27.5746C43.5343 27.5746 47.2771 27.3411 51.1709 31.2978C53.9475 34.12 55.74 34.8847 56.5411 35.093C56.6739 35.1288 56.6991 35.3084 56.5734 35.3694C54.4684 36.4286 50.0286 39.9185 50.0286 39.9185C50.0286 39.9185 45.6356 43.5592 45.79 45.814C45.941 48.0725 50.0178 46.2628 51.4367 45.4011C52.8484 44.5395 58.2221 42.9956 58.1682 47.4693C58.1108 51.943 53.9224 50.3918 52.2019 51.5409C50.6428 52.5749 51.9073 53.9464 52.1587 54.1978C52.1695 54.2085 52.1587 54.2264 52.1444 54.2229C51.1674 53.8962 49.0445 50.7796 51.7457 50.6755C54.5007 50.5678 54.587 49.0167 53.4878 48.3309C52.3958 47.6416 50.0682 48.155 50.0682 48.155C45.0106 49.1926 43.5918 47.9216 43.5918 47.9216C43.5918 47.9216 42.0435 47.1892 40.3445 43.8357C38.8394 40.8663 38.5197 35.9797 38.4658 34.8991C38.4623 34.7985 38.5556 34.7232 38.6527 34.7518C39.17 34.9026 40.6822 35.1467 43.0205 33.8255C45.9445 32.1667 44.7987 32.0662 44.7987 32.0662C36.1023 36.4286 29.9061 33.3301 30.6209 24.9822C31.2279 17.9054 38.9975 16.1174 41.3216 15.6757C41.6197 15.6183 42.2196 15.3885 42.5033 15.0942C42.6075 14.9899 42.6577 14.8464 42.6577 14.6992V14.4406L53.1034 14.2539C53.0999 14.3617 53.0962 14.4729 53.0962 14.5627C53.0819 15.0259 53.5417 15.4173 54.0014 15.4747C58.4269 16.0313 66.121 22.2822 63.0677 29.7683V29.7719Z" fill="white"/>
    <path d="M56.9505 17.2701C56.6775 16.5269 55.758 16.1211 55.2443 15.9488C55.0359 15.8806 54.8205 15.8447 54.6013 15.8447H53.5381C53.3046 15.8447 53.1142 15.6616 53.1071 15.4282C53.0963 15.0655 53.0891 14.5413 53.1071 14.1788C53.1393 13.5683 53.6064 13.3995 53.6064 13.3995C55.2192 12.6671 55.564 10.9006 55.0971 9.99941C54.6301 9.09822 54.375 7.34248 54.4074 6.6208C54.4397 5.89912 54.587 4.98715 55.8082 3.13088C57.0296 1.27461 56.11 1.62648 55.3234 1.85986C54.6372 2.06451 53.3513 3.26372 53.0281 3.5725C52.9885 3.6084 52.931 3.59405 52.9059 3.54378C51.268 0.132846 47.9525 0 47.9525 0C47.9525 0 47.8591 0 47.8088 0C47.8088 0 44.4933 0.129256 42.8518 3.54378C42.8302 3.59046 42.7692 3.6084 42.7296 3.5725C42.4064 3.26372 41.1205 2.06451 40.4343 1.85986C39.644 1.62648 38.7246 1.2782 39.9494 3.13088C41.1743 4.98356 41.318 5.89912 41.3503 6.6208C41.3827 7.34248 41.1384 9.08385 40.6606 9.99941C40.1829 10.915 40.5385 12.6671 42.1513 13.3995C42.1513 13.3995 42.6183 13.5648 42.6506 14.1788C42.6722 14.5413 42.6614 15.0583 42.6506 15.421C42.6435 15.658 42.4494 15.8447 42.2124 15.8447H41.1564C40.9372 15.8447 40.7217 15.877 40.5134 15.9488C39.9997 16.1211 39.0802 16.5232 38.8072 17.2701" fill="white"/>
    <path d="M20.9404 67.2813C21.2026 69.7049 20.9727 71.6007 20.3046 72.983C19.6364 74.3654 18.5984 75.1049 17.1652 75.1947C15.7355 75.2845 14.5142 74.6849 13.4473 73.3779C12.3805 72.0675 11.5831 70.1752 11.1053 67.7122C10.8647 66.4376 10.7461 65.8021 10.5055 64.5275C10.0241 61.9711 10.096 59.964 10.7785 58.5278C11.4609 57.0917 12.675 56.3843 14.3669 56.3843C16.0587 56.3843 17.4417 57.0774 18.5517 58.4453C19.658 59.8133 20.3297 61.7269 20.6099 64.2007C20.7427 65.4359 20.8111 66.0534 20.9439 67.2885L20.9404 67.2813ZM17.7614 64.3156C17.5494 62.6748 17.2082 61.4576 16.7269 60.6606C16.2491 59.8635 15.6061 59.4685 14.8195 59.4757C14.0364 59.4829 13.5156 59.8778 13.2714 60.6606C13.0271 61.4468 13.0343 62.6389 13.2857 64.2331C13.5048 65.5436 13.6126 66.2006 13.8281 67.5112C14.0939 69.1232 14.4675 70.3046 14.9344 71.0513C15.4014 71.7981 15.9869 72.15 16.7018 72.1141C17.3914 72.0782 17.8548 71.6869 18.0954 70.9329C18.3361 70.1789 18.3648 69.0299 18.1709 67.4789C18.0057 66.215 17.923 65.5831 17.7578 64.3156H17.7614Z" fill="white"/>
    <path d="M31.0878 67.0913C29.3422 67.1237 28.4728 67.138 26.7343 67.1776C26.9175 70.0858 27.0073 71.5399 27.1905 74.4482C26.1344 74.4877 25.61 74.5093 24.5611 74.5559C24.0582 68.5778 23.5553 62.6033 23.0525 56.6252C26.3643 56.6252 28.0202 56.6252 31.3321 56.6216C31.3645 57.8101 31.3788 58.4061 31.4112 59.5945C29.3493 59.6053 28.3183 59.6089 26.2601 59.6232C26.3751 61.4508 26.4325 62.3628 26.5476 64.1902C28.3256 64.1615 29.2128 64.1508 30.998 64.1292C31.0339 65.3141 31.0519 65.9066 31.0878 67.0913Z" fill="white"/>
    <path d="M41.458 66.944C39.6944 66.962 38.8143 66.9728 37.0578 66.9979C37.0255 69.8595 37.011 71.2885 36.9788 74.15C35.9047 74.1752 35.366 74.1896 34.2956 74.2183C34.2452 68.355 34.1985 62.4883 34.1483 56.625C37.4601 56.625 39.116 56.625 42.4278 56.625C42.3776 57.7991 42.3525 58.3844 42.3021 59.5584C40.2331 59.5656 39.2022 59.5692 37.1369 59.5764C37.1189 61.3716 37.1081 62.2692 37.0865 64.0681C38.8754 64.0501 39.7734 64.043 41.5694 64.0285C41.5227 65.1991 41.5012 65.7808 41.4545 66.9512L41.458 66.944Z" fill="white"/>
    <path d="M51.9863 66.4305C50.1975 66.4412 49.3031 66.4484 47.5214 66.4592C47.3813 68.3011 47.3131 69.2202 47.1729 71.0586C49.2276 71.037 50.2585 71.0263 52.324 71.0084C52.2018 72.168 52.1408 72.7461 52.0186 73.9058C48.8791 73.9382 47.3202 73.9562 44.2203 74.0064C44.5652 68.2078 44.9064 62.4127 45.2512 56.6143C48.6781 56.6143 50.3915 56.6143 53.8219 56.6143C53.6997 57.7775 53.6386 58.3592 53.5165 59.5225C51.3289 59.5261 50.237 59.5296 48.053 59.5333C47.9273 61.1741 47.8662 61.9927 47.7405 63.6335C49.5509 63.6228 50.4597 63.6192 52.2736 63.612C52.1587 64.7394 52.1012 65.3031 51.9899 66.4305H51.9863Z" fill="white"/>
    <path d="M59.6661 67.551C59.095 67.551 58.8112 67.5547 58.24 67.5583C57.9024 70.0787 57.7336 71.3391 57.3959 73.8595C56.2824 73.8703 55.7256 73.8739 54.6193 73.8846C55.3053 68.1291 55.995 62.3737 56.6811 56.6182C58.61 56.6182 59.5727 56.6182 61.5015 56.6182C63.0139 56.6182 64.1202 57.0705 64.7991 57.9682C65.478 58.8693 65.6756 60.1511 65.4061 61.8099C65.0362 64.0935 64.0735 65.6912 62.5505 66.6139C63.1216 69.4253 63.391 70.8327 63.9047 73.6369C63.8939 73.7015 63.8868 73.7374 63.876 73.8021C62.669 73.8129 62.0655 73.8164 60.8622 73.8272C60.406 71.3175 60.1689 70.0644 59.6661 67.551ZM58.628 64.6571C59.2889 64.6571 59.6194 64.6536 60.2839 64.65C60.8659 64.65 61.3328 64.4166 61.6956 63.9535C62.0548 63.4902 62.2954 62.8727 62.4103 62.1008C62.669 60.3738 62.22 59.5121 61.0634 59.5121C60.3666 59.5121 60.0181 59.5121 59.3176 59.5121C59.0411 61.5693 58.9046 62.5962 58.6316 64.65L58.628 64.6571Z" fill="white"/>
    <path d="M73.2261 69.2311C73.3661 68.5346 73.3194 68.0068 73.0931 67.6549C72.8633 67.2994 72.3855 66.9152 71.6707 66.5527C70.3811 65.8992 69.4436 65.1523 68.9624 64.2799C68.481 63.4074 68.3409 62.3734 68.5492 61.1777C68.8043 59.7307 69.4472 58.5711 70.4962 57.6949C71.545 56.8189 72.7662 56.3809 74.1456 56.3809C75.0652 56.3809 75.841 56.6035 76.4696 57.0452C77.0983 57.4867 77.5221 58.1115 77.7377 58.9157C77.9532 59.7201 77.9532 60.6356 77.7377 61.6589C76.5523 61.6624 75.9595 61.6661 74.7778 61.6696C74.9358 60.8725 74.9107 60.2622 74.6987 59.8421C74.4869 59.4256 74.1025 59.2137 73.5457 59.2137C73.0213 59.2137 72.5795 59.3933 72.2238 59.7523C71.8647 60.1114 71.6311 60.589 71.5162 61.1957C71.4264 61.6661 71.5091 62.0933 71.7605 62.4703C72.0119 62.8473 72.5185 63.2818 73.2404 63.6444C74.4761 64.2655 75.428 64.9764 75.8877 65.8453C76.3476 66.7178 76.4302 67.8272 76.1464 69.1809C75.8338 70.6674 75.1945 71.8306 74.239 72.6744C73.2835 73.5217 72.1377 73.9526 70.8014 73.9669C69.8963 73.9777 69.1167 73.7587 68.4523 73.3098C67.7913 72.861 67.3243 72.2148 67.0513 71.371C66.7783 70.5273 66.7389 69.5256 66.9399 68.3695C68.0966 68.3622 68.6749 68.3587 69.8351 68.3515C69.652 69.3388 69.6771 70.0569 69.9142 70.5021C70.1477 70.9474 70.6254 71.1664 71.3474 71.1591C72.3496 71.152 72.9746 70.5094 73.2296 69.2311H73.2261Z" fill="white"/>
    <path d="M27.6431 89.7507C27.1546 90.3575 26.5296 90.817 25.7716 91.1258C25.0137 91.4346 24.1624 91.589 23.2177 91.589C21.6013 91.589 20.265 91.0684 19.1731 90.0199C18.0811 88.9716 17.316 87.442 16.9101 85.4385C16.7089 84.3793 16.6083 83.848 16.4108 82.7888C16.0264 80.7602 16.1917 79.2055 16.9424 78.1356C17.6896 77.0656 18.9971 76.5594 20.8218 76.606C22.5389 76.649 23.8894 77.0692 24.8485 77.8663C25.8075 78.6597 26.4362 79.8841 26.7487 81.5393C25.5526 81.5214 24.9527 81.5106 23.7529 81.4926C23.5481 80.5663 23.2573 79.9307 22.8872 79.5897C22.5136 79.2451 21.9784 79.0691 21.2816 79.0547C20.4339 79.0367 19.8628 79.3133 19.5754 79.8877C19.288 80.4622 19.245 81.3885 19.4425 82.6631C19.6184 83.7259 19.7047 84.2573 19.8808 85.3164C20.1034 86.6521 20.4626 87.6251 20.9547 88.2319C21.4468 88.8387 22.1329 89.1475 23.0274 89.151C23.5985 89.151 24.0474 89.0398 24.3708 88.8063C24.4641 88.7346 24.5108 88.6987 24.6042 88.6269C24.4641 87.5606 24.3923 87.0291 24.2522 85.9628C23.4189 85.9555 23.0022 85.952 22.1688 85.9412C22.0359 85.0508 21.9712 84.6055 21.8384 83.7187C23.9038 83.7474 24.9347 83.7618 26.9965 83.787C27.2588 86.1746 27.388 87.3667 27.6502 89.7542L27.6431 89.7507Z" fill="white"/>
    <path d="M37.9846 85.2086C36.1203 85.2015 35.19 85.1978 33.3257 85.187C33.4192 86.7094 33.4659 87.467 33.5592 88.9894C35.7001 88.9965 36.7669 88.9965 38.9078 89.0002C38.9257 89.9587 38.9329 90.4363 38.9508 91.395C35.7145 91.395 34.098 91.395 30.8616 91.395C30.4557 86.5981 30.0498 81.8012 29.6439 77.0044C33.2575 77.0691 35.0607 77.0942 38.6672 77.1121C38.6851 78.0743 38.6923 78.5555 38.7102 79.5141C36.4149 79.5033 35.269 79.4962 32.9737 79.4674C33.0564 80.8211 33.0994 81.4997 33.1821 82.8569C35.0787 82.8748 36.027 82.882 37.9236 82.8891C37.9451 83.8191 37.9595 84.2858 37.981 85.2158L37.9846 85.2086Z" fill="white"/>
    <path d="M51.4692 91.3881C50.3304 91.3881 49.7629 91.3881 48.6242 91.3881C47.4281 88.2284 46.117 85.0868 44.7161 82.0133C44.6155 85.7618 44.5653 87.6396 44.4647 91.3881C43.326 91.3881 42.7585 91.3881 41.6198 91.3881C41.6377 86.6307 41.6557 81.8697 41.6701 77.1124C42.9416 77.1124 43.5774 77.1087 44.849 77.098C46.3074 80.1679 47.6795 83.3023 48.9331 86.4584C49.1631 82.6883 49.2744 80.8033 49.5043 77.0334C50.7687 77.0082 51.4045 76.9939 52.6689 76.958C52.2701 81.7656 51.8679 86.5768 51.4692 91.3844V91.3881Z" fill="white"/>
    <path d="M57.7552 91.3845C56.6164 91.3845 56.0489 91.3845 54.9102 91.3845C55.4454 86.5338 55.9771 81.6794 56.5123 76.8287C57.7839 76.7785 58.4197 76.7497 59.6877 76.6851C59.0447 81.5861 58.3981 86.4834 57.7552 91.3845Z" fill="white"/>
    <path d="M69.8316 84.6415C67.9672 84.7276 67.037 84.7635 65.1726 84.8317C64.8889 86.4367 64.7488 87.2409 64.465 88.8458C66.6023 88.8135 67.6728 88.7956 69.8136 88.7525C69.5945 89.801 69.4831 90.3252 69.2641 91.3735C66.0276 91.3772 64.4111 91.3808 61.1747 91.3843C61.9542 86.4116 62.7301 81.4424 63.5096 76.4695C67.1159 76.2398 68.9192 76.0925 72.5327 75.73C72.3101 76.782 72.2023 77.3098 71.9796 78.3618C69.6843 78.5592 68.5348 78.6418 66.2395 78.7927C65.9881 80.2216 65.8623 80.9397 65.6109 82.3687C67.5075 82.2789 68.4558 82.2251 70.356 82.1101L69.8352 84.6415H69.8316Z" fill="white"/>
    <path d="M61.7136 54.4136H83.7328L75.1802 95.3016H14.4891L6.28485 54.4136H36.5657" stroke="white" stroke-width="2" stroke-miterlimit="10"/>
    <path d="M39.9925 49.3975H0.203491L10.448 99.8757H78.9338L90.0475 49.3975H58.865" stroke="white" stroke-width="2" stroke-miterlimit="10"/>
    </g>
    <defs>
    <clipPath id="clip0_10_162">
    <rect width="90.2582" height="100" fill="white"/>
    </clipPath>
    </defs>
    </svg>
    