<svg width="141" height="140" viewBox="0 0 141 140" fill="none" xmlns="http://www.w3.org/2000/svg">
    <rect x="21.457" y="109.005" width="6.89545" height="125.11" transform="rotate(-125.334 21.457 109.005)" fill="#FF4440"/>
    <path d="M65.3367 126.212V112.96C59.5309 111.848 54.6897 109.535 50.8132 106.022C46.9378 102.509 45.7067 100.625 43.3203 94.7919L53.7938 91.4775C56.3127 96.6479 56.4453 96.9131 59.522 99.5002C62.7728 102.004 66.7968 103.257 71.5942 103.257C76.3561 103.257 80.3103 102.1 83.4567 99.7882C86.6032 97.475 88.1764 94.1793 88.1764 89.9013C88.1764 85.6233 86.8378 82.2932 84.1607 79.9111C81.4835 77.5279 76.1126 75.0148 68.0478 72.3718C60.0518 69.8332 54.2637 66.5897 50.6834 62.6414C47.1031 58.6942 45.3129 53.799 45.3129 47.9558C45.3129 41.8695 47.2767 36.9133 51.2043 33.0871C55.1329 29.2609 59.8438 27.0869 65.3367 26.5652V13.5229H75.7648V26.5652C80.632 27.1912 84.7603 28.8524 88.1498 31.5486C91.5392 34.2437 94.0855 37.626 95.7886 41.6953L86.0895 45.8695C84.6993 42.5306 82.8049 40.0785 80.4062 38.5134C78.0075 36.9483 74.8267 36.1657 70.8636 36.1657C66.1361 36.1657 62.4338 37.2352 59.7567 39.3742C57.0795 41.5132 55.741 44.3388 55.741 47.851C55.741 51.6427 57.3053 54.6864 60.434 56.9819C63.5628 59.2774 69.2294 61.6596 77.4339 64.1283C84.5601 66.2851 89.8701 69.4936 93.3638 73.7539C96.8575 78.0152 98.6044 83.2239 98.6044 89.3801C98.6044 96.2312 96.5885 101.639 92.5566 105.604C88.5237 109.569 82.9264 112.091 75.7648 113.17V126.212H65.3367Z" fill="#F78C1E"/>
    <path d="M140.5 70C140.5 108.66 109.16 140 70.5 140C31.8401 140 0.5 108.66 0.5 70C0.5 31.3401 31.8401 0 70.5 0C109.16 0 140.5 31.3401 140.5 70ZM8.05637 70C8.05637 104.487 36.0133 132.444 70.5 132.444C104.987 132.444 132.944 104.487 132.944 70C132.944 35.5133 104.987 7.55637 70.5 7.55637C36.0133 7.55637 8.05637 35.5133 8.05637 70Z" fill="#FF4440"/>
    </svg>
    