<svg width="141" height="140" viewBox="0 0 141 140" fill="none" xmlns="http://www.w3.org/2000/svg">
    <path
        d="M34.0955 19.7876C46.3303 10.9304 61.3862 6.86286 76.4167 8.354C91.4472 9.84514 105.41 16.7916 115.666 27.88C125.923 38.9684 131.76 53.4303 132.076 68.5313C132.393 83.6322 127.165 98.3257 117.382 109.833L114.288 107.203C123.427 96.4518 128.311 82.7244 128.016 68.6162C127.721 54.5081 122.267 40.997 112.685 30.6376C103.103 20.2782 90.0581 13.7884 76.0158 12.3953C61.9735 11.0022 47.9074 14.8023 36.477 23.0772L34.0955 19.7876Z"
        fill="#7A8899" />
    <path d="M108.811 117.456L110.989 102.947L122.466 112.088L108.811 117.456Z" fill="#7A8899" />
    <path
        d="M19.8582 34.6309C11.6966 46.3171 7.82772 60.4663 8.90752 74.6794C9.98731 88.8925 15.9493 102.295 25.7827 112.614C35.616 122.933 48.7155 129.534 62.8601 131.297C77.0047 133.06 91.3238 129.878 103.39 122.289L101.227 118.851C89.9549 125.941 76.5771 128.915 63.3625 127.267C50.1478 125.62 37.9096 119.453 28.7227 109.812C19.5358 100.172 13.9658 87.6504 12.957 74.3718C11.9482 61.0931 15.5627 47.8741 23.1877 36.9563L19.8582 34.6309Z"
        fill="#7A8899" />
    <path d="M29.2398 26.8946L26.0501 41.2159L15.2424 31.2928L29.2398 26.8946Z" fill="#7A8899" />
    <circle cx="70.323" cy="72.1243" r="8.39725" fill="#057CD9" />
    <path
        d="M55.7148 95.2454C55.7148 87.1136 62.307 80.5215 70.4388 80.5215C78.5706 80.5215 85.1627 87.1136 85.1627 95.2454V108.129H55.7148V95.2454Z"
        fill="#057CD9" />
    <circle cx="96.0019" cy="53.3949" r="6.23234" fill="#FF9E53" />
    <path
        d="M85.1602 70.5554C85.1602 64.52 90.0528 59.6274 96.0881 59.6274C102.123 59.6274 107.016 64.52 107.016 70.5554V80.1173H85.1602V70.5554Z"
        fill="#FF9E53" />
    <circle cx="44.6972" cy="53.3949" r="6.23234" fill="#D9575D" />
    <path
        d="M33.8555 70.5554C33.8555 64.52 38.7481 59.6274 44.7834 59.6274C50.8187 59.6274 55.7113 64.52 55.7113 70.5554V80.1173H33.8555V70.5554Z"
        fill="#D9575D" />
    <circle cx="70.3873" cy="35.0733" r="5.39513" fill="#3E9944" />
    <path
        d="M61.0039 49.9282C61.0039 44.7036 65.2393 40.4683 70.4639 40.4683C75.6884 40.4683 79.9238 44.7036 79.9238 49.9282V58.2057H61.0039V49.9282Z"
        fill="#3E9944" />
</svg>
    