<svg width="38" height="32" viewBox="0 0 38 32" fill="none" xmlns="http://www.w3.org/2000/svg">
<path d="M9.23102 9.473L5.11902 11.7615C4.75502 11.9768 4.37885 12.039 3.99052 11.948C3.60185 11.857 3.32035 11.6205 3.14602 11.2385L0.927018 7.4425C0.711684 7.0525 0.655851 6.70367 0.759518 6.396C0.863518 6.08833 1.09368 5.82683 1.45002 5.6115L10.8885 0H13.1655C13.5835 0 13.9137 0.114667 14.156 0.344C14.398 0.573667 14.519 0.8975 14.519 1.3155V1.604C14.519 2.87067 14.9512 3.936 15.8155 4.8C16.6795 5.664 17.7449 6.096 19.0115 6.096C20.2782 6.096 21.348 5.664 22.221 4.8C23.0944 3.936 23.531 2.87067 23.531 1.604V1.3155C23.531 0.8975 23.6457 0.573667 23.875 0.344C24.1044 0.114667 24.428 0 24.846 0H27.123L36.6 5.6115C36.9564 5.82683 37.1782 6.08833 37.2655 6.396C37.3525 6.70367 37.2922 7.0525 37.0845 7.4425L34.854 11.2385C34.6797 11.6205 34.372 11.8653 33.931 11.973C33.4897 12.0807 33.1114 12.0307 32.796 11.823L28.696 9.4115V30.473C28.696 30.9037 28.5474 31.2658 28.25 31.5595C27.9527 31.8532 27.5885 32 27.1575 32H10.7575C10.3269 32 9.96469 31.8532 9.67102 31.5595C9.37768 31.2658 9.23102 30.9037 9.23102 30.473V9.473Z" fill="white"/>
</svg>
