<svg width="140" height="141" viewBox="0 0 140 141" fill="none" xmlns="http://www.w3.org/2000/svg">
    <rect x="15.0625" y="29.0234" width="29.6281" height="18.773"
        transform="rotate(-45.7337 15.0625 29.0234)" fill="#FF8C33" />
    <rect x="5.83594" y="79.4614" width="29.2466" height="18.773"
        transform="rotate(-90.3577 5.83594 79.4614)" fill="#FF8C33" />
    <rect x="101.445" y="128.529" width="25.6409" height="16.1608"
        transform="rotate(165.642 101.445 128.529)" fill="#FF8C33" />
    <path
        d="M65.3946 120.09C77.0101 121.804 88.8676 119.676 99.1624 114.031C109.457 108.385 117.626 99.5304 122.424 88.8146C127.223 78.0987 128.389 66.1084 125.746 54.6686C123.102 43.2288 116.793 32.966 107.779 25.4422C98.7654 17.9184 87.5402 13.5455 75.8121 12.9892C64.084 12.4329 52.4953 15.7236 42.8098 22.3605C33.1242 28.9973 25.8723 38.6169 22.1576 49.7551C18.443 60.8933 18.4691 72.9401 22.232 84.0621L39.2904 78.2907C36.7854 70.8868 36.768 62.8672 39.2409 55.4524C41.7137 48.0377 46.5414 41.6339 52.9891 37.2157C59.4368 32.7975 67.1515 30.6069 74.9589 30.9772C82.7663 31.3476 90.239 34.2586 96.2396 39.2672C102.24 44.2759 106.44 51.1079 108.2 58.7234C109.96 66.3389 109.183 74.3209 105.989 81.4545C102.794 88.5881 97.3566 94.4826 90.5033 98.241C83.65 101.999 75.7564 103.416 68.0239 102.275L65.3946 120.09Z"
        fill="#FFC629" />
    <rect x="57.1016" width="29.6281" height="16.1608" fill="#FFC629" />
    <rect x="103.672" y="5.92578" width="29.6281" height="16.1608"
        transform="rotate(37.9578 103.672 5.92578)" fill="#FFC629" />
    <rect x="139.789" y="46.3276" width="29.6281" height="16.1608"
        transform="rotate(89.5939 139.789 46.3276)" fill="#FFC629" />
    <rect x="133.211" y="96.8594" width="25.6409" height="16.1608"
        transform="rotate(126.405 133.211 96.8594)" fill="#FFC629" />
    <path
        d="M80.1823 43.9161C75.2031 43.0251 70.0283 43.9126 65.4874 46.4362C60.9464 48.9598 57.3025 52.9733 55.1396 57.8333C52.9768 62.6933 52.4204 68.1183 53.5597 73.2386C54.6989 78.3588 57.4678 82.8778 61.4225 86.0709C65.3771 89.264 70.2884 90.9463 75.369 90.8481C80.4495 90.75 85.4051 88.877 89.4412 85.5295C93.4773 82.182 96.3601 77.5539 97.6275 72.3872C98.8949 67.2204 98.8702 64.9585 96.8274 60.1798L85.2086 62.5365C86.1476 64.733 86.3413 67.2178 85.7588 69.5926C85.1762 71.9674 83.8512 74.0947 81.9961 75.6333C80.141 77.1719 77.8632 78.0328 75.528 78.0779C73.1928 78.123 70.9354 77.3498 69.1178 75.8821C67.3001 74.4145 64.6255 74.7406 64.1019 72.3872C63.5782 70.0337 60.4284 66.3191 61.4225 64.0853C62.4166 61.8515 64.1428 56.6261 66.23 55.4662C68.3171 54.3063 73.2394 53.4406 75.528 53.8501L80.1823 43.9161Z"
        fill="#464747" />
    <path
        d="M7.73422 132.645C3.46273 128.365 3.46959 121.433 7.74954 117.161L55.4223 69.5827L70.8908 85.0818L23.218 132.66C18.938 136.932 12.0057 136.925 7.73422 132.645Z"
        fill="#464747" />
    <path
        d="M6.19435 120.569C5.59513 119.968 5.5961 118.996 6.1965 118.396L54.0694 70.6182L65.5972 82.1689L27.1008 120.589C21.3219 126.357 11.9618 126.347 6.19435 120.569Z"
        fill="#6B6969" />
    <path
        d="M80.4837 43.7963C76.0262 42.2892 71.1976 42.2839 66.7368 43.7813C62.2759 45.2787 58.4285 48.1962 55.7831 52.0876C53.1377 55.979 51.8399 60.6299 52.0885 65.3288C52.337 70.0277 54.1181 74.5157 57.1592 78.1064C60.2003 81.697 64.3341 84.1925 68.928 85.2109C73.5219 86.2294 78.3229 85.7148 82.5967 83.7459C86.8704 81.777 90.3814 78.4622 92.5925 74.3087C94.8036 70.1551 95.5931 65.3915 94.8402 60.7467L83.3562 62.6083C83.7023 64.7432 83.3394 66.9327 82.3231 68.8418C81.3068 70.7509 79.693 72.2745 77.7287 73.1795C75.7643 74.0844 73.5576 74.3209 71.4461 73.8528C69.3346 73.3847 67.4346 72.2377 66.0368 70.5873C64.639 68.937 63.8203 66.8741 63.7061 64.7143C63.5919 62.5546 64.1884 60.4169 65.4043 58.6283C66.6202 56.8397 68.3886 55.4987 70.439 54.8104C72.4893 54.1222 74.7087 54.1246 76.7575 54.8173L80.4837 43.7963Z"
        fill="#6B6969" />
</svg>
    