<svg width="40" height="40" viewBox="0 0 40 40" fill="none" xmlns="http://www.w3.org/2000/svg">
<path d="M0.884766 28.0695C0.884766 25.1542 2.28093 23.0415 5.07327 21.7315C7.8656 20.4212 10.9079 19.766 14.2003 19.766C17.5183 19.766 20.5669 20.4212 23.3463 21.7315C26.1259 23.0415 27.5158 25.1542 27.5158 28.0695H0.884766ZM0.884766 34.016V32.308H27.5158V34.016H0.884766ZM2.19277 40.0005C1.84443 40.0005 1.53943 39.8695 1.27777 39.6075C1.01577 39.3459 0.884766 39.041 0.884766 38.693V38.293H27.5158V38.693C27.5158 39.041 27.3913 39.3459 27.1423 39.6075C26.8933 39.8695 26.5818 40.0005 26.2078 40.0005H2.19277ZM31.0543 40.0005V27.789C31.0543 24.8124 29.9369 22.3202 27.7023 20.3125C25.4676 18.3045 22.8349 17.0275 19.8043 16.4815L18.8003 9.23153H28.1273V0.769531H29.6658V9.23153H39.1158L36.1388 37.493C36.0618 38.2424 35.7598 38.8475 35.2328 39.3085C34.7061 39.7699 34.0849 40.0005 33.3693 40.0005H31.0543Z" fill="white"/>
</svg>
