<svg width="141" height="145" viewBox="0 0 141 145" fill="none" xmlns="http://www.w3.org/2000/svg">
    <path
        d="M9.52344 59.8828H131.75V124.648C131.75 135.694 122.796 144.648 111.75 144.648H29.5234C18.4777 144.648 9.52344 135.694 9.52344 124.648V59.8828Z"
        fill="#FFC629" />
    <rect x="0.5" y="28.9844" width="140" height="30.8984" rx="3" fill="#FD8B34" />
    <rect x="81.7109" y="28.9858" width="115.765" height="22.5292"
        transform="rotate(90.0034 81.7109 28.9858)" fill="#FF4440" />
    <path
        d="M66.5858 43.2958C50.2889 56.3114 44.0272 85.4507 42.9334 98.3934L31.9959 84.5849L17.367 95.9325C18.0964 71.4451 33.1956 45.8409 41.7156 34.6069C31.1062 31.6816 20.0348 28.4921 16.9569 27.163C12.1444 25.0848 11.9438 18.9143 12.4451 16.0888L17.7772 2.96376C20.5115 -0.426866 26.9373 0.0926649 29.8084 0.776259L59.4764 14.1747L58.0871 33.5189L99.3983 34.8192C111.539 47.8349 120.407 80.9846 123.324 95.9325L108.148 84.5849L98.1678 98.3934C96.6365 78.2684 81.5793 53.2763 74.242 43.2958H66.5858Z"
        fill="#FF4440" />
    <path
        d="M74.465 43.0224C90.7619 56.038 97.0236 85.1773 98.1174 98.12L109.055 84.3114L123.684 95.6591C122.954 71.1717 107.855 45.5675 99.3351 34.3335C109.945 31.4082 121.016 28.2186 124.094 26.8895C128.906 24.8114 129.107 18.6408 128.606 15.8153L123.274 2.69032C120.539 -0.700304 114.113 -0.180773 111.242 0.502821L81.5744 13.9013L82.9637 33.2454L41.6525 34.5458C29.5119 47.5614 20.6434 80.7112 17.7267 95.6591L32.9025 84.3114L42.883 98.12C44.4142 77.995 59.4715 53.0028 66.8088 43.0224H74.465Z"
        fill="#FF4440" />
    <rect x="56.8281" y="10.9375" width="27.8906" height="31.9922" rx="13.9453" fill="#EA2F2F" />
</svg>
    