<svg width="769" height="852" viewBox="0 0 769 852" fill="none" xmlns="http://www.w3.org/2000/svg">
<path d="M94.1653 355.874C112.972 353.306 125.795 333.502 122.807 311.64C119.819 289.779 102.151 274.139 83.3441 276.707C64.5376 279.275 51.7144 299.08 54.7026 320.941C57.6908 342.803 75.3588 358.443 94.1653 355.874Z" fill="#F4AF24"/>
<path d="M101.549 352.158C120.356 349.589 133.179 329.785 130.191 307.923C127.202 286.062 109.534 270.422 90.7279 272.99C71.9214 275.559 59.0982 295.363 62.0864 317.224C65.0746 339.086 82.7426 354.726 101.549 352.158Z" fill="#F6CE03"/>
<path d="M283.586 350.691C288.945 333.567 281.337 315.948 266.592 311.338C251.848 306.728 235.552 316.872 230.193 333.996C224.834 351.12 232.442 368.739 247.186 373.349C261.93 377.959 278.227 367.815 283.586 350.691Z" fill="#F4AF24"/>
<path d="M278.173 346.708C283.532 329.584 275.923 311.965 261.179 307.355C246.435 302.745 230.139 312.89 224.78 330.014C219.421 347.138 227.029 364.757 241.773 369.367C256.517 373.977 272.814 363.832 278.173 346.708Z" fill="#F6CE03"/>
<path d="M528.75 365.062C538.864 361.899 544.081 349.807 540.403 338.052C536.724 326.297 525.543 319.332 515.428 322.495C505.314 325.657 500.097 337.75 503.775 349.504C507.454 361.259 518.635 368.224 528.75 365.062Z" fill="#F4AF24"/>
<path d="M532.441 362.31C542.555 359.147 547.773 347.055 544.094 335.3C540.416 323.546 529.234 316.58 519.12 319.743C509.006 322.905 503.788 334.998 507.467 346.752C511.145 358.507 522.327 365.472 532.441 362.31Z" fill="#F6CE03"/>
<path d="M700.542 374.554C709.102 358.018 704.505 338.647 690.274 331.286C676.044 323.925 657.568 331.363 649.008 347.898C640.447 364.433 645.044 383.805 659.275 391.166C673.506 398.526 691.982 391.089 700.542 374.554Z" fill="#F4AF24"/>
<path d="M695.76 369.497C704.321 352.962 699.724 333.59 685.493 326.229C671.262 318.869 652.786 326.306 644.226 342.841C635.666 359.377 640.262 378.748 654.493 386.109C668.724 393.47 687.2 386.032 695.76 369.497Z" fill="#F6CE03"/>
<path d="M198.825 361.215L160.723 298.412" stroke="#141413" stroke-linecap="round" stroke-linejoin="round"/>
<path d="M533.328 382.262L588.048 343.748" stroke="#141413" stroke-linecap="round" stroke-linejoin="round"/>
<path d="M691.001 422.396L714.689 387.4" stroke="#141413" stroke-linecap="round" stroke-linejoin="round"/>
<path d="M98.1982 381.955L109.858 402.604" stroke="#141413" stroke-linecap="round" stroke-linejoin="round"/>
<path d="M93.9136 398.106L114.571 386.451" stroke="#141413" stroke-linecap="round" stroke-linejoin="round"/>
<path d="M217.677 255.678L217.616 287.584" stroke="#141413" stroke-linecap="round" stroke-linejoin="round"/>
<path d="M201.946 271.738L233.836 271.799" stroke="#141413" stroke-linecap="round" stroke-linejoin="round"/>
<path d="M567.482 255.707L567.391 293.731" stroke="#141413" stroke-linecap="round" stroke-linejoin="round"/>
<path d="M548.722 274.857L586.733 274.919" stroke="#141413" stroke-linecap="round" stroke-linejoin="round"/>
<path d="M609.135 331.451L646.594 308.049L634.261 302.268L609.135 331.451Z" fill="#BE100B" stroke="#4F1A02" stroke-width="0.25" stroke-linecap="round" stroke-linejoin="round"/>
<path d="M642.463 292.722C642.922 293.487 646.594 308.048 646.594 308.048L634.261 302.236L642.463 292.691V292.722Z" fill="#E0584F" stroke="#4F1A02" stroke-width="0.25" stroke-linecap="round" stroke-linejoin="round"/>
<path d="M629.15 287.033L642.463 292.723L634.261 302.267L629.15 287.033Z" fill="#FF1F12" stroke="#4F1A02" stroke-width="0.25" stroke-linecap="round" stroke-linejoin="round"/>
<path d="M613.634 280.395L629.15 287.033L612.93 293.151L613.634 280.395Z" fill="#FF1F12" stroke="#4F1A02" stroke-width="0.25" stroke-linecap="round" stroke-linejoin="round"/>
<path d="M599.892 287.583L613.633 280.395L612.929 293.151L599.892 287.583Z" fill="#E0584F" stroke="#4F1A02" stroke-width="0.25" stroke-linecap="round" stroke-linejoin="round"/>
<path d="M609.135 331.45L612.93 293.15L634.261 302.266L609.135 331.45Z" fill="#FF1F12" stroke="#4F1A02" stroke-width="0.25" stroke-linecap="round" stroke-linejoin="round"/>
<path d="M599.892 287.584L609.135 331.451L612.929 293.151L599.892 287.584Z" fill="#BE100B" stroke="#4F1A02" stroke-width="0.25" stroke-linecap="round" stroke-linejoin="round"/>
<path d="M612.93 293.151L629.15 287.033L634.261 302.267L612.93 293.151Z" fill="#FF6E63" stroke="#4F1A02" stroke-width="0.25" stroke-linecap="round" stroke-linejoin="round"/>
<path d="M169.72 274.583L174.831 244.359L166.14 248.091L169.72 274.583Z" fill="#BE100B" stroke="#4F1A02" stroke-width="0.25" stroke-linecap="round" stroke-linejoin="round"/>
<path d="M164.977 239.434C165.589 239.556 174.831 244.359 174.831 244.359L166.14 248.091L164.977 239.434Z" fill="#E0584F" stroke="#4F1A02" stroke-width="0.25" stroke-linecap="round" stroke-linejoin="round"/>
<path d="M155.887 243.716L164.977 239.434L166.14 248.091L155.887 243.716Z" fill="#FF1F12" stroke="#4F1A02" stroke-width="0.25" stroke-linecap="round" stroke-linejoin="round"/>
<path d="M145.298 248.703L155.887 243.717L151.572 254.944L145.298 248.703Z" fill="#FF1F12" stroke="#4F1A02" stroke-width="0.25" stroke-linecap="round" stroke-linejoin="round"/>
<path d="M142.666 259.135L145.298 248.703L151.572 254.944L142.666 259.135Z" fill="#E0584F" stroke="#4F1A02" stroke-width="0.25" stroke-linecap="round" stroke-linejoin="round"/>
<path d="M169.72 274.581L151.572 254.942L166.139 248.09L169.72 274.581Z" fill="#FF1F12" stroke="#4F1A02" stroke-width="0.25" stroke-linecap="round" stroke-linejoin="round"/>
<path d="M142.666 259.134L169.72 274.583L151.572 254.943L142.666 259.134Z" fill="#BE100B" stroke="#4F1A02" stroke-width="0.25" stroke-linecap="round" stroke-linejoin="round"/>
<path d="M151.572 254.944L155.887 243.717L166.139 248.091L151.572 254.944Z" fill="#FF6E63" stroke="#4F1A02" stroke-width="0.25" stroke-linecap="round" stroke-linejoin="round"/>
<path d="M537.337 253.658C509.824 321.08 453.727 272.716 453.727 272.716C453.727 272.716 427.713 244.481 396.558 236.619C365.372 228.757 370.912 234.937 370.912 234.937C370.912 234.937 402.801 232.948 435.976 266.659C459.633 290.704 474.905 297.219 481.73 298.994C482.862 299.299 483.076 300.829 482.005 301.349C464.071 310.373 426.244 340.107 426.244 340.107C426.244 340.107 388.815 371.126 390.131 390.337C391.417 409.579 426.152 394.161 438.241 386.819C450.268 379.478 496.052 366.324 495.593 404.44C495.104 442.556 459.419 429.34 444.76 439.13C431.477 447.94 442.25 459.625 444.392 461.767C444.484 461.858 444.392 462.011 444.27 461.981C435.946 459.197 417.859 432.644 440.873 431.757C464.346 430.839 465.081 417.624 455.716 411.781C446.412 405.908 426.581 410.282 426.581 410.282C383.49 419.123 371.402 408.294 371.402 408.294C371.402 408.294 358.211 402.054 343.735 373.482C330.912 348.183 328.188 306.549 327.729 297.342C327.699 296.485 328.494 295.843 329.321 296.087C333.728 297.372 346.612 299.452 366.535 288.195C391.447 274.062 381.685 273.206 381.685 273.206C307.592 310.373 254.8 283.974 260.89 212.85C266.062 152.556 332.259 137.322 352.06 133.559C354.6 133.07 359.711 131.112 362.128 128.604C363.016 127.716 363.444 126.493 363.444 125.239V123.036L452.441 121.445C452.411 122.363 452.38 123.311 452.38 124.076C452.258 128.022 456.175 131.357 460.092 131.846C497.797 136.588 563.351 189.846 537.337 253.628V253.658Z" fill="#8548B0"/>
<path d="M485.218 147.141C482.892 140.809 475.058 137.352 470.681 135.884C468.906 135.303 467.07 134.997 465.203 134.997H456.144C454.155 134.997 452.533 133.437 452.472 131.448C452.38 128.358 452.319 123.892 452.472 120.803C452.747 115.602 456.726 114.164 456.726 114.164C470.467 107.924 473.405 92.8733 469.427 85.195C465.448 77.5168 463.275 62.5579 463.551 56.4092C463.826 50.2605 465.081 42.4905 475.486 26.6751C485.892 10.8597 478.057 13.8576 471.355 15.846C465.509 17.5896 454.553 27.8069 451.799 30.4377C451.462 30.7436 450.972 30.6213 450.758 30.193C436.803 1.13185 408.555 0 408.555 0C408.555 0 407.759 0 407.331 0C407.331 0 379.083 1.10126 365.097 30.193C364.913 30.5907 364.393 30.7436 364.056 30.4377C361.302 27.8069 350.346 17.5896 344.5 15.846C337.767 13.8576 329.933 10.8903 340.369 26.6751C350.805 42.4599 352.029 50.2605 352.304 56.4092C352.58 62.5579 350.499 77.3944 346.428 85.195C342.358 92.9957 345.388 107.924 359.129 114.164C359.129 114.164 363.108 115.572 363.383 120.803C363.567 123.892 363.475 128.297 363.383 131.387C363.322 133.406 361.669 134.997 359.649 134.997H350.652C348.785 134.997 346.949 135.272 345.174 135.884C340.797 137.352 332.963 140.778 330.637 147.141" fill="#8548B0"/>
<path d="M178.412 573.239C180.646 593.888 178.687 610.04 172.995 621.817C167.302 633.595 158.458 639.896 146.247 640.661C134.066 641.426 123.661 636.317 114.571 625.182C105.482 614.017 98.6876 597.895 94.6173 576.91C92.5668 566.05 91.5569 560.636 89.5064 549.776C85.4054 527.996 86.0175 510.895 91.8323 498.659C97.6471 486.423 107.991 480.396 122.406 480.396C136.82 480.396 148.603 486.301 158.06 497.956C167.486 509.611 173.209 525.915 175.596 546.992C176.728 557.516 177.31 562.777 178.442 573.3L178.412 573.239ZM151.327 547.971C149.521 533.991 146.614 523.621 142.513 516.83C138.442 510.039 132.964 506.674 126.262 506.735C119.59 506.796 115.153 510.161 113.072 516.83C110.991 523.529 111.052 533.685 113.194 547.268C115.061 558.433 115.979 564.031 117.815 575.197C120.08 588.932 123.263 598.997 127.241 605.359C131.22 611.722 136.208 614.72 142.299 614.414C148.175 614.108 152.123 610.774 154.173 604.35C156.223 597.926 156.468 588.137 154.816 574.922C153.408 564.154 152.704 558.77 151.296 547.971H151.327Z" fill="#8548B0"/>
<path d="M264.868 571.616C249.995 571.892 242.588 572.014 227.776 572.351C229.337 597.129 230.102 609.518 231.663 634.297C222.665 634.633 218.197 634.817 209.26 635.214C204.976 584.281 200.691 533.378 196.407 482.445C224.624 482.445 238.732 482.445 266.949 482.414C267.225 492.54 267.347 497.618 267.623 507.743C250.056 507.835 241.272 507.866 223.736 507.988C224.716 523.559 225.205 531.329 226.185 546.899C241.334 546.654 248.893 546.563 264.103 546.379C264.409 556.474 264.562 561.522 264.868 571.616Z" fill="#8548B0"/>
<path d="M353.222 570.363C338.196 570.516 330.698 570.608 315.732 570.822C315.457 595.203 315.334 607.378 315.059 631.758C305.908 631.973 301.318 632.095 292.198 632.34C291.769 582.385 291.371 532.4 290.943 482.445C319.16 482.445 333.268 482.445 361.485 482.445C361.057 492.448 360.843 497.435 360.414 507.438C342.786 507.499 334.003 507.53 316.406 507.591C316.253 522.886 316.161 530.534 315.977 545.86C331.218 545.707 338.869 545.646 354.171 545.523C353.773 555.496 353.59 560.452 353.192 570.424L353.222 570.363Z" fill="#8548B0"/>
<path d="M442.923 565.988C427.682 566.08 420.062 566.141 404.882 566.233C403.688 581.926 403.107 589.757 401.913 605.42C419.419 605.236 428.202 605.145 445.8 604.992C444.759 614.872 444.239 619.797 443.198 629.678C416.45 629.954 403.168 630.107 376.757 630.535C379.695 581.131 382.602 531.757 385.54 482.354C414.737 482.354 429.335 482.354 458.562 482.354C457.521 492.265 457.001 497.221 455.96 507.132C437.322 507.163 428.019 507.193 409.411 507.224C408.34 521.204 407.82 528.178 406.749 542.158C422.173 542.067 429.916 542.036 445.371 541.975C444.392 551.58 443.902 556.383 442.954 565.988H442.923Z" fill="#8548B0"/>
<path d="M508.355 575.533C503.489 575.533 501.071 575.564 496.205 575.595C493.328 597.069 491.89 607.807 489.013 629.281C479.526 629.373 474.782 629.404 465.356 629.495C471.201 580.458 477.077 531.422 482.923 482.385C499.357 482.385 507.559 482.385 523.993 482.385C536.878 482.385 546.304 486.239 552.088 493.887C557.872 501.565 559.556 512.486 557.26 526.619C554.108 546.075 545.906 559.687 532.93 567.549C537.796 591.502 540.091 603.493 544.468 627.385C544.376 627.935 544.315 628.241 544.223 628.792C533.94 628.884 528.798 628.914 518.546 629.006C514.659 607.623 512.639 596.947 508.355 575.533ZM499.51 550.877C505.141 550.877 507.957 550.847 513.619 550.816C518.577 550.816 522.555 548.828 525.646 544.882C528.707 540.935 530.757 535.674 531.736 529.097C533.94 514.383 530.114 507.041 520.26 507.041C514.323 507.041 511.354 507.041 505.386 507.041C503.03 524.569 501.867 533.318 499.541 550.816L499.51 550.877Z" fill="#8548B0"/>
<path d="M623.886 589.849C625.079 583.915 624.681 579.418 622.753 576.42C620.795 573.391 616.724 570.118 610.634 567.029C599.647 561.461 591.659 555.098 587.559 547.665C583.458 540.231 582.264 531.421 584.039 521.234C586.212 508.906 591.69 499.026 600.627 491.561C609.563 484.097 619.968 480.365 631.72 480.365C639.555 480.365 646.165 482.262 651.521 486.025C656.877 489.787 660.488 495.11 662.325 501.962C664.161 508.815 664.161 516.615 662.325 525.334C652.225 525.364 647.175 525.395 637.107 525.425C638.453 518.634 638.239 513.434 636.433 509.855C634.628 506.306 631.353 504.501 626.609 504.501C622.141 504.501 618.377 506.031 615.347 509.09C612.287 512.149 610.297 516.218 609.318 521.387C608.553 525.395 609.257 529.035 611.399 532.247C613.541 535.459 617.857 539.161 624.008 542.25C634.536 547.542 642.646 553.599 646.563 561.002C650.481 568.436 651.185 577.888 648.767 589.421C646.104 602.086 640.657 611.997 632.516 619.186C624.375 626.405 614.613 630.076 603.228 630.198C595.516 630.29 588.874 628.424 583.213 624.6C577.582 620.776 573.603 615.27 571.277 608.081C568.951 600.893 568.615 592.358 570.328 582.508C580.183 582.446 585.11 582.416 594.995 582.355C593.435 590.767 593.649 596.885 595.669 600.678C597.658 604.472 601.728 606.338 607.88 606.276C616.418 606.215 621.743 600.74 623.916 589.849H623.886Z" fill="#8548B0"/>
<path d="M235.519 764.676C231.357 769.846 226.032 773.761 219.574 776.392C213.117 779.023 205.864 780.338 197.815 780.338C184.043 780.338 172.658 775.903 163.355 766.97C154.051 758.038 147.532 745.006 144.074 727.936C142.36 718.912 141.503 714.385 139.82 705.361C136.545 688.077 137.953 674.831 144.349 665.715C150.715 656.599 161.855 652.286 177.402 652.683C192.031 653.05 203.538 656.63 211.709 663.421C219.88 670.181 225.236 680.613 227.899 694.715C217.708 694.562 212.597 694.47 202.375 694.317C200.63 686.425 198.152 681.01 194.999 678.104C191.816 675.168 187.256 673.669 181.319 673.546C174.097 673.393 169.231 675.749 166.782 680.643C164.334 685.538 163.967 693.43 165.65 704.29C167.149 713.345 167.884 717.872 169.384 726.896C171.281 738.276 174.341 746.566 178.534 751.736C182.727 756.906 188.572 759.537 196.193 759.567C201.059 759.567 204.884 758.619 207.639 756.63C208.434 756.019 208.832 755.713 209.628 755.101C208.434 746.016 207.822 741.488 206.629 732.403C199.529 732.341 195.979 732.311 188.878 732.219C187.746 724.633 187.195 720.839 186.063 713.283C203.66 713.528 212.444 713.651 230.01 713.865C232.245 734.208 233.346 744.364 235.58 764.706L235.519 764.676Z" fill="#8548B0"/>
<path d="M323.629 725.978C307.745 725.917 299.819 725.886 283.935 725.794C284.731 738.765 285.129 745.219 285.924 758.19C304.165 758.251 313.254 758.251 331.494 758.282C331.647 766.449 331.708 770.518 331.861 778.686C304.287 778.686 290.515 778.686 262.941 778.686C259.482 737.816 256.024 696.947 252.566 656.078C283.354 656.629 298.717 656.843 329.444 656.996C329.597 665.194 329.658 669.293 329.811 677.461C310.255 677.369 300.492 677.308 280.936 677.063C281.64 688.596 282.007 694.378 282.711 705.941C298.87 706.094 306.95 706.155 323.109 706.216C323.292 714.139 323.415 718.116 323.598 726.039L323.629 725.978Z" fill="#8548B0"/>
<path d="M438.517 778.626C428.815 778.626 423.98 778.626 414.278 778.626C404.087 751.706 392.917 724.939 380.981 698.753C380.124 730.69 379.696 746.689 378.839 778.626C369.137 778.626 364.302 778.626 354.6 778.626C354.753 738.093 354.906 697.53 355.029 656.997C365.862 656.997 371.279 656.966 382.113 656.875C394.539 683.03 406.229 709.735 416.91 736.625C418.869 704.504 419.818 688.444 421.776 656.324C432.549 656.11 437.966 655.988 448.739 655.682C445.341 696.643 441.914 737.634 438.517 778.595V778.626Z" fill="#8548B0"/>
<path d="M492.074 778.594C482.372 778.594 477.537 778.594 467.835 778.594C472.395 737.266 476.925 695.907 481.485 654.579C492.319 654.151 497.736 653.906 508.539 653.355C503.061 695.112 497.552 736.837 492.074 778.594Z" fill="#8548B0"/>
<path d="M594.965 721.145C579.081 721.879 571.155 722.185 555.271 722.766C552.854 736.44 551.66 743.292 549.242 756.966C567.452 756.691 576.572 756.538 594.812 756.171C592.945 765.104 591.996 769.57 590.13 778.502C562.555 778.533 548.783 778.564 521.209 778.594C527.85 736.226 534.461 693.889 541.102 651.52C571.828 649.563 587.192 648.308 617.979 645.219C616.082 654.182 615.164 658.679 613.266 667.642C593.71 669.324 583.917 670.028 564.361 671.313C562.219 683.488 561.147 689.606 559.005 701.781C575.164 701.016 583.244 700.557 599.433 699.578L594.996 721.145H594.965Z" fill="#8548B0"/>
<path d="M525.8 463.602H713.403L640.535 811.968H123.447L53.5469 463.602H311.54" stroke="#FFD700" stroke-width="2" stroke-miterlimit="10"/>
<path d="M340.736 420.867H1.73389L89.017 850.942H672.516L767.205 420.867H501.53" stroke="#FFD700" stroke-width="2" stroke-miterlimit="10"/>
</svg>
