<svg width="36" height="34" viewBox="0 0 36 34" fill="none" xmlns="http://www.w3.org/2000/svg">
<path d="M2.769 34C2.00067 34 1.347 33.7307 0.808 33.192C0.269334 32.653 0 31.9993 0 31.231V8.769C0 8.00067 0.269334 7.347 0.808 6.808C1.347 6.26933 2.00067 6 2.769 6H12V2.769C12 2.00067 12.2693 1.347 12.808 0.807999C13.347 0.269332 14.0007 0 14.769 0H21.231C21.9993 0 22.653 0.269332 23.192 0.807999C23.7307 1.347 24 2.00067 24 2.769V6H33.231C33.9993 6 34.653 6.26933 35.192 6.808C35.7307 7.347 36 8.00067 36 8.769V31.231C36 31.9993 35.7307 32.653 35.192 33.192C34.653 33.7307 33.9993 34 33.231 34H2.769ZM13.5385 6H22.4615V2.769C22.4615 2.46133 22.3333 2.17933 22.077 1.923C21.8207 1.66667 21.5387 1.5385 21.231 1.5385H14.769C14.4613 1.5385 14.1793 1.66667 13.923 1.923C13.6667 2.17933 13.5385 2.46133 13.5385 2.769V6ZM17.231 20.769V26.769H18.769V20.769H24.769V19.231H18.769V13.231H17.231V19.231H11.231V20.769H17.231Z" fill="white"/>
</svg>
