<svg width="48" height="48" viewBox="0 0 48 48" fill="none" xmlns="http://www.w3.org/2000/svg">
<path d="M14.769 44C14.0007 44 13.347 43.7307 12.808 43.192C12.2693 42.653 12 41.9993 12 41.231V6.769C12 6.00067 12.2693 5.347 12.808 4.808C13.347 4.26933 14.0007 4 14.769 4H33.231C33.9993 4 34.653 4.26933 35.192 4.808C35.7307 5.347 36 6.00067 36 6.769V41.231C36 41.9993 35.7307 42.653 35.192 43.192C34.653 43.7307 33.9993 44 33.231 44H14.769ZM13.5385 38.154H34.4615V9.846H13.5385V38.154Z" fill="white"/>
</svg>
