<svg width="48" height="48" viewBox="0 0 48 48" fill="none" xmlns="http://www.w3.org/2000/svg">
<path d="M18.3657 40V38.4615H22.4732V34H8.78122C8.01255 34 7.35872 33.7307 6.81972 33.192C6.28105 32.653 6.01172 31.9993 6.01172 31.231V10.769C6.01172 10.0007 6.28105 9.347 6.81972 8.808C7.35872 8.26933 8.01255 8 8.78122 8H39.2427C40.0111 8 40.6647 8.26933 41.2037 8.808C41.7424 9.347 42.0117 10.0007 42.0117 10.769V31.231C42.0117 31.9993 41.7424 32.653 41.2037 33.192C40.6647 33.7307 40.0111 34 39.2427 34H25.5502V38.4615H29.6962V40H18.3657Z" fill="white"/>
</svg>
